<?xml version="1.0" standalone="no"?>
<!DOCTYPE svg PUBLIC "-//W3C//DTD SVG 20010904//EN"
 "http://www.w3.org/TR/2001/REC-SVG-20010904/DTD/svg10.dtd">
<svg version="1.0" xmlns="http://www.w3.org/2000/svg"
 width="1000.000000pt" height="1000.000000pt" viewBox="0 0 1000.000000 1000.000000"
 preserveAspectRatio="xMidYMid meet">

<g transform="translate(0.000000,1000.000000) scale(0.100000,-0.100000)"
fill="#000000" stroke="none">
<path d="M7246 8479 c-1346 -295 -2512 -693 -3223 -1099 -159 -92 -432 -276
-558 -377 -741 -594 -818 -1214 -241 -1938 113 -141 413 -438 596 -589 375
-310 565 -490 710 -671 435 -546 450 -1023 49 -1545 -144 -187 -434 -465 -750
-716 -67 -54 -118 -99 -112 -101 15 -5 340 143 503 229 697 368 1107 726 1216
1063 22 66 27 106 31 226 11 293 -43 491 -227 844 -180 346 -205 462 -148 694
118 485 542 909 1152 1151 66 27 122 53 124 59 2 6 -23 39 -56 73 -66 71 -86
102 -78 125 9 22 51 14 245 -46 88 -27 180 -53 204 -56 66 -10 134 8 276 74
69 32 212 86 316 120 213 69 288 105 293 138 4 30 -32 39 -223 57 -187 18
-261 40 -349 102 -100 72 -119 79 -226 78 -124 0 -221 -28 -387 -109 -304
-149 -680 -418 -1098 -785 -287 -252 -433 -336 -650 -371 -164 -26 -464 11
-640 80 -199 77 -369 228 -459 407 -60 119 -80 210 -80 354 1 144 22 244 84
395 123 302 320 519 700 772 606 403 1588 840 2875 1279 198 68 349 123 335
123 -14 0 -105 -18 -204 -40z"/>
</g>
</svg>
